<svg width="656" height="648" viewBox="0 0 656 648" fill="none" xmlns="http://www.w3.org/2000/svg">
<path d="M565.667 307.713C565.667 165.408 450.231 50.0464 307.834 50.0464C165.436 50.0464 50 165.408 50 307.713C50 450.018 165.436 565.379 307.834 565.379C450.231 565.379 565.667 450.018 565.667 307.713Z" fill="#7B4AE2" fill-opacity="0.2"/>
<g filter="url(#filter0_d_147_72)">
<circle cx="570.143" cy="329.11" r="35.8102" fill="#090E16"/>
</g>
<g clip-path="url(#clip0_147_72)">
<path fill-rule="evenodd" clip-rule="evenodd" d="M585.251 311.205H555.036C553.491 311.205 552.238 312.458 552.238 314.003V344.218C552.238 345.763 553.491 347.015 555.036 347.015H585.251C586.796 347.015 588.049 345.763 588.049 344.218V314.003C588.049 312.458 586.796 311.205 585.251 311.205ZM573.293 343.112V339.248C573.994 339.836 574.755 340.277 575.577 340.57C576.399 340.864 577.229 341.011 578.066 341.011C578.558 341.011 578.987 340.967 579.353 340.878C579.72 340.79 580.026 340.667 580.272 340.51C580.517 340.353 580.701 340.168 580.821 339.955C580.942 339.741 581.003 339.51 581.003 339.26C581.003 338.922 580.906 338.621 580.713 338.355C580.519 338.089 580.256 337.844 579.921 337.618C579.587 337.393 579.19 337.176 578.731 336.967C578.272 336.757 577.776 336.544 577.245 336.327C575.891 335.763 574.882 335.075 574.218 334.262C573.553 333.449 573.221 332.467 573.221 331.316C573.221 330.415 573.402 329.64 573.765 328.992C574.127 328.344 574.621 327.811 575.245 327.392C575.869 326.974 576.592 326.666 577.414 326.469C578.236 326.271 579.106 326.173 580.024 326.173C580.926 326.173 581.726 326.227 582.423 326.336C583.119 326.444 583.762 326.611 584.35 326.837V330.447C584.06 330.246 583.744 330.068 583.401 329.916C583.059 329.763 582.706 329.636 582.344 329.535C581.981 329.434 581.621 329.36 581.262 329.312C580.904 329.264 580.564 329.239 580.241 329.239C579.798 329.239 579.396 329.282 579.033 329.366C578.671 329.451 578.364 329.569 578.115 329.722C577.865 329.875 577.672 330.058 577.535 330.272C577.398 330.485 577.329 330.724 577.329 330.99C577.329 331.28 577.406 331.539 577.559 331.769C577.712 331.998 577.929 332.216 578.211 332.421C578.493 332.626 578.836 332.827 579.238 333.024C579.641 333.222 580.096 333.425 580.604 333.634C581.297 333.924 581.919 334.232 582.471 334.558C583.023 334.884 583.496 335.252 583.891 335.663C584.285 336.073 584.587 336.542 584.797 337.069C585.006 337.596 585.111 338.21 585.111 338.91C585.111 339.876 584.928 340.687 584.561 341.343C584.195 341.999 583.697 342.53 583.069 342.937C582.441 343.343 581.71 343.635 580.876 343.812C580.042 343.989 579.162 344.078 578.236 344.078C577.285 344.078 576.381 343.997 575.523 343.836C574.665 343.675 573.922 343.434 573.293 343.112ZM571.822 329.634H566.854V343.798H562.918V329.634H557.974V326.452H571.822V329.634Z" fill="#7B4AE2" fill-opacity="0.5"/>
</g>
<g filter="url(#filter1_d_147_72)">
<circle cx="85.8102" cy="237.794" r="35.8102" fill="#090E16"/>
</g>
<path d="M99.2074 231.496C98.7899 231.352 98.3572 231.216 97.9117 231.088C97.9849 230.789 98.0521 230.494 98.1119 230.204C99.0927 225.443 98.4514 221.608 96.2617 220.345C94.1619 219.134 90.728 220.396 87.26 223.415C86.9265 223.705 86.592 224.012 86.2577 224.334C86.035 224.121 85.8126 223.915 85.5908 223.718C81.9562 220.491 78.313 219.131 76.1254 220.397C74.0277 221.612 73.4065 225.217 74.2893 229.729C74.3746 230.165 74.4742 230.61 74.5869 231.063C74.0713 231.209 73.5735 231.365 73.0973 231.531C68.836 233.017 66.1146 235.345 66.1146 237.76C66.1146 240.255 69.036 242.757 73.4745 244.274C73.8247 244.393 74.1882 244.507 74.5627 244.614C74.4411 245.103 74.3354 245.583 74.2466 246.051C73.4048 250.484 74.0622 254.005 76.1543 255.211C78.3153 256.458 81.942 255.177 85.4735 252.09C85.7526 251.846 86.0327 251.587 86.3133 251.316C86.6771 251.666 87.0402 251.997 87.4014 252.308C90.8221 255.252 94.2006 256.441 96.2907 255.231C98.4496 253.981 99.1511 250.199 98.2403 245.598C98.1707 245.246 98.0898 244.887 97.9988 244.522C98.2535 244.447 98.5036 244.369 98.7474 244.288C103.362 242.759 106.364 240.288 106.364 237.76C106.364 235.336 103.554 232.992 99.2074 231.496ZM98.2066 242.656C97.9865 242.729 97.7607 242.799 97.5306 242.868C97.0212 241.255 96.3337 239.54 95.4924 237.769C96.2953 236.039 96.9562 234.346 97.4513 232.744C97.863 232.863 98.2626 232.989 98.6477 233.122C102.372 234.404 104.644 236.3 104.644 237.76C104.644 239.316 102.191 241.336 98.2066 242.656ZM96.5535 245.932C96.9563 247.966 97.0138 249.806 96.747 251.244C96.5073 252.536 96.0252 253.398 95.4292 253.743C94.1607 254.477 91.4482 253.522 88.5228 251.005C88.1874 250.716 87.8496 250.408 87.5108 250.082C88.6449 248.842 89.7783 247.4 90.8846 245.798C92.8303 245.626 94.6686 245.344 96.3357 244.958C96.4178 245.289 96.4907 245.614 96.5535 245.932ZM79.8364 253.616C78.5971 254.053 77.6101 254.066 77.0135 253.722C75.7439 252.99 75.2161 250.163 75.936 246.371C76.0185 245.937 76.1166 245.491 76.2298 245.035C77.8785 245.4 79.7034 245.662 81.6538 245.82C82.7675 247.387 83.9337 248.828 85.1089 250.089C84.8521 250.337 84.5963 250.573 84.342 250.795C82.7804 252.16 81.2155 253.129 79.8364 253.616ZM74.0305 242.647C72.068 241.976 70.4472 241.104 69.3362 240.153C68.338 239.298 67.8339 238.449 67.8339 237.76C67.8339 236.295 70.019 234.425 73.6632 233.155C74.1054 233.001 74.5683 232.855 75.0487 232.719C75.5523 234.357 76.213 236.07 77.0103 237.802C76.2027 239.56 75.5326 241.3 75.024 242.958C74.6816 242.859 74.3498 242.756 74.0305 242.647ZM75.9767 229.399C75.2203 225.533 75.7227 222.617 76.9868 221.886C78.3333 221.106 81.3109 222.217 84.4491 225.004C84.6497 225.182 84.8511 225.369 85.0531 225.561C83.8836 226.817 82.7281 228.247 81.6243 229.804C79.7314 229.98 77.9194 230.262 76.2534 230.639C76.1487 230.218 76.0559 229.804 75.9767 229.399ZM93.3383 233.686C92.9401 232.998 92.5312 232.327 92.1144 231.673C93.3986 231.836 94.629 232.051 95.7844 232.315C95.4375 233.427 95.0052 234.589 94.4962 235.781C94.1311 235.087 93.745 234.389 93.3383 233.686ZM86.2583 226.79C87.0514 227.649 87.8456 228.609 88.6268 229.65C87.8396 229.612 87.0427 229.593 86.2391 229.593C85.4432 229.593 84.6521 229.612 83.8697 229.648C84.6517 228.617 85.4528 227.659 86.2583 226.79ZM79.1329 233.698C78.7351 234.388 78.3561 235.083 77.9968 235.779C77.496 234.592 77.0677 233.424 76.7178 232.297C77.8662 232.04 79.0907 231.83 80.3668 231.67C79.9441 232.33 79.5318 233.006 79.1329 233.698V233.698ZM80.4035 243.973C79.0852 243.826 77.8422 243.627 76.6941 243.377C77.0496 242.229 77.4874 241.036 77.9987 239.823C78.359 240.519 78.7395 241.215 79.1397 241.906H79.1398C79.5475 242.61 79.9699 243.3 80.4035 243.973ZM86.3059 248.852C85.491 247.972 84.6781 247 83.8842 245.953C84.6549 245.984 85.4406 245.999 86.2391 245.999C87.0595 245.999 87.8705 245.981 88.6687 245.945C87.885 247.01 87.0936 247.984 86.3059 248.852ZM94.5126 239.761C95.0506 240.988 95.5041 242.174 95.8642 243.302C94.6972 243.568 93.4372 243.783 92.1097 243.942C92.5275 243.28 92.9399 242.597 93.3452 241.894C93.7552 241.183 94.1445 240.471 94.5126 239.761ZM91.8558 241.035C91.2267 242.126 90.5807 243.167 89.925 244.15C88.7306 244.236 87.4967 244.28 86.2391 244.28C84.9866 244.28 83.7682 244.241 82.595 244.165C81.9128 243.169 81.2529 242.124 80.6277 241.044H80.6278C80.0043 239.968 79.4305 238.881 78.9105 237.802C79.4303 236.719 80.0027 235.632 80.6226 234.557L80.6225 234.557C81.244 233.479 81.8982 232.44 82.5741 231.45C83.7711 231.36 84.9986 231.312 86.239 231.312H86.2391C87.4852 231.312 88.7142 231.36 89.9109 231.451C90.5764 232.434 91.2262 233.47 91.8502 234.548C92.4813 235.638 93.061 236.718 93.5853 237.777C93.0626 238.855 92.4841 239.945 91.8558 241.035ZM95.4028 221.834C96.7506 222.612 97.2748 225.746 96.4279 229.857C96.3739 230.119 96.3131 230.386 96.247 230.657C94.5772 230.272 92.7639 229.985 90.8654 229.807C89.7595 228.232 88.6134 226.8 87.4631 225.561C87.7723 225.263 88.0812 224.979 88.3888 224.712C91.3602 222.126 94.1374 221.105 95.4028 221.834ZM86.2391 234.166C88.2241 234.166 89.8332 235.775 89.8332 237.76C89.8332 239.745 88.2241 241.354 86.2391 241.354C84.2542 241.354 82.645 239.745 82.645 237.76C82.645 235.775 84.2542 234.166 86.2391 234.166Z" fill="#7B4AE2" fill-opacity="0.5"/>
<g filter="url(#filter2_d_147_72)">
<circle cx="85.8102" cy="466.98" r="35.8102" fill="#090E16"/>
</g>
<g clip-path="url(#clip1_147_72)">
<path fill-rule="evenodd" clip-rule="evenodd" d="M79.8885 449.074C76.5939 449.074 73.9201 451.748 73.9201 455.043C73.9201 458.337 76.5939 461.011 79.8885 461.011C76.5939 461.011 73.9201 463.685 73.9201 466.98C73.9201 470.274 76.5939 472.948 79.8885 472.948C76.5939 472.948 73.9201 475.622 73.9201 478.916C73.9201 482.211 76.5939 484.885 79.8885 484.885C83.183 484.885 85.8568 482.211 85.8568 478.916L85.8568 466.98C85.8568 470.274 88.5307 472.948 91.8252 472.948C95.1198 472.948 97.7936 470.274 97.7936 466.98C97.7936 463.685 95.1198 461.011 91.8252 461.011C95.1198 461.011 97.7936 458.337 97.7936 455.043C97.7936 451.748 95.1198 449.074 91.8252 449.074H79.8885ZM91.8252 461.011H85.8568L85.8568 466.98C85.8568 463.685 88.5307 461.011 91.8252 461.011Z" fill="#7B4AE2" fill-opacity="0.5"/>
</g>
<g filter="url(#filter3_f_147_72)">
<circle cx="308.148" cy="305.148" r="255.148" fill="#7B4AE2" fill-opacity="0.2"/>
</g>
<g filter="url(#filter4_i_147_72)">
<path fill-rule="evenodd" clip-rule="evenodd" d="M262.636 402.465C299.391 422.056 340.608 419.88 372.901 402.463V445.383L373.266 445.373V470.573H262.636V402.465Z" fill="#C5885E"/>
<path fill-rule="evenodd" clip-rule="evenodd" d="M262.635 438.226C299.39 457.819 340.607 455.642 372.901 438.226V465.595L397.734 464.977L398.042 464.988C398.042 530.959 240.326 540.834 240.326 464.889L240.942 464.861L262.635 464.972V438.226Z" fill="#D9996C"/>
<path fill-rule="evenodd" clip-rule="evenodd" d="M198.067 167.098C285.781 111.249 397.996 131.109 435.909 167.937C446.87 194.314 447.645 219.755 444.42 247.065C451.825 241.751 460.631 242.967 467.569 247.916C470.38 270.577 477.909 315.405 444.169 317.35C432.553 461.956 219.72 479.955 190.95 317.823C157.51 316.669 166.527 271.364 168.616 249.608C176.639 243.504 185.801 246.576 191.487 249.307L198.067 167.098Z" fill="#D9996C"/>
<path fill-rule="evenodd" clip-rule="evenodd" d="M194.962 209.551C194.961 209.559 192.961 235.496 192.96 235.504C192.939 235.92 194.918 210.394 194.898 210.785C194.918 210.386 194.94 209.975 194.962 209.551Z" fill="#2F201E"/>
<path d="M286.225 80.5518L278.97 85.2699L275.284 81.7025C269.526 76.0646 266.762 77.1002 262.386 86.4207C259.737 92.1738 256.398 92.8646 250.64 89.067C248.336 87.4563 245.457 86.0753 244.306 86.0753C241.772 86.0753 239.353 89.9874 238.317 95.1655C237.511 99.4231 234.747 103.335 232.444 103.335C231.638 103.335 228.643 102.3 225.765 101.034C221.388 99.0777 220.006 98.9625 217.588 99.9981C214.824 101.264 214.593 101.954 214.593 109.549C214.593 115.072 213.787 119.33 212.29 122.552C210.102 127.385 209.987 127.5 204.574 127.5C195.591 127.5 191.33 131.987 195.706 136.935C198.01 139.351 196.512 141.883 192.022 142.919C183.729 144.99 181.311 150.283 185.802 155.921C188.912 159.949 188.797 160.524 183.844 162.826C178.662 165.357 177.857 168.234 181.196 171.801C183.729 174.563 183.729 174.677 182.347 189.867L185.5 247.649H193.848C192.383 246.584 192.556 243.267 192.96 235.504C193.027 234.224 193.1 232.824 193.173 231.293C193.864 214.723 197.859 205.647 200.393 200.814C210.701 212.827 212.499 208.083 222 206.271C232.85 204.201 246.966 215.978 259 211.929C270.5 211.015 279 200.814 285 200.814C291.97 202.263 302.034 206.551 306.034 209.551C306.034 209.551 320.278 210.525 329.642 209.551C335.962 208.893 354.716 218.47 362.5 219C374.586 219.778 357.966 207.652 366 209.551C373.041 211.215 392 209.72 406.5 214.22C414.657 210.147 414.455 207.339 423 211.929C428.395 214.836 434.438 197.143 440 211.929C445.5 229.929 443.13 250.743 444.5 250.929C448.646 251.504 449.733 251.101 451 247.649C453.765 239.71 445.382 163.977 440.776 154.887C437.321 148.213 437.091 145.682 439.048 138.778C440.43 133.944 440.43 132.909 438.703 130.378C437.091 127.961 435.939 127.501 431.333 127.501C428.338 127.616 423.732 128.076 421.083 128.537C416.361 129.457 416.246 129.457 416.822 126.465C419.125 115.189 422.565 109.531 411.393 112.408C407.824 113.328 410.817 109.628 410.587 109.282C410.242 108.937 404.383 108.611 405.19 104.814C406.571 98.6002 400.123 101.841 398.511 100.115C396.783 98.5039 395.747 98.5039 389.067 99.7698C378.357 101.956 374.326 100.921 370.41 94.9365C366.38 89.0683 362.694 86.997 358.894 88.4926C356.821 89.2979 354.633 88.9531 350.487 87.1122C346.11 85.2712 343.577 84.8107 339.662 85.3857C335.631 86.0766 333.443 85.616 329.642 83.6599C325.727 81.7038 323.539 81.3584 318.817 81.9335C313.75 82.5092 311.907 82.0486 306.034 79.172C302.349 77.3311 297.973 75.8349 296.36 75.7198C294.748 75.7198 290.256 77.9048 286.225 80.5518Z" fill="#2F201E"/>
<path fill-rule="evenodd" clip-rule="evenodd" d="M240.087 252.771C233.983 255.647 226.957 262.897 226.957 266.349C226.957 268.995 228.8 268.995 232.37 266.118C241.698 258.754 261.507 258.754 271.641 266.003C273.599 267.269 275.672 268.419 276.363 268.419C278.781 268.419 277.63 264.277 273.945 259.904C269.108 253.921 260.471 250.009 252.293 250.009C248.032 250.009 244.002 250.929 240.087 252.77V252.771Z" fill="#533824"/>
<path fill-rule="evenodd" clip-rule="evenodd" d="M373.677 252.771C367.573 255.647 360.548 262.897 360.548 266.349C360.548 268.995 362.391 268.995 365.961 266.118C375.289 258.754 395.097 258.754 405.232 266.003C407.189 267.269 409.262 268.419 409.954 268.419C412.372 268.419 411.22 264.277 407.535 259.904C402.698 253.921 394.061 250.009 385.884 250.009C381.623 250.009 377.593 250.929 373.677 252.77L373.677 252.771V252.771Z" fill="#533824"/>
<path fill-rule="evenodd" clip-rule="evenodd" d="M292.256 307.773C293.523 312.721 297.208 316.634 303.657 319.741C308.84 322.272 311.488 322.847 319.089 322.847C326.69 322.847 329.339 322.272 334.521 319.741C340.97 316.634 344.655 312.722 345.922 307.773L346.498 305.242H319.089H291.68L292.256 307.773Z" fill="#AF754C"/>
<path fill-rule="evenodd" clip-rule="evenodd" d="M286.958 354.03C288.455 363.581 295.711 373.362 304.694 377.965C311.258 381.417 323.35 382.107 330.26 379.461C340.625 375.434 349.608 364.617 351.22 354.03H286.958Z" fill="#3E291B"/>
<path d="M359.721 576.002L367.116 569.994C368.83 568.602 371.349 568.861 372.742 570.574C374.136 572.286 373.876 574.802 372.162 576.195L368.583 579.102L394.568 600.978C396.281 602.37 396.541 604.887 395.148 606.599C394.357 607.57 393.205 608.074 392.043 608.074C391.156 608.074 390.263 607.781 389.522 607.179L359.721 582.202C358.787 581.443 358.245 580.305 358.245 579.102C358.245 577.899 358.787 576.76 359.721 576.002Z" fill="#7B4AE2"/>
<path d="M392.56 539.293C394.683 539.31 396.391 541.043 396.374 543.165L396.044 604.263C396.027 606.384 394.291 608.091 392.168 608.074C391.63 608.07 391.12 607.955 390.656 607.752C389.291 607.154 388.341 605.786 388.354 604.201L388.685 543.104C388.702 540.982 390.437 539.276 392.56 539.293Z" fill="#7B4AE2"/>
<path d="M409.437 581.321L412.169 579.102L402.441 571.198C400.727 569.806 400.468 567.29 401.861 565.577C403.254 563.865 405.773 563.606 407.487 564.998L421.03 576.002C421.965 576.76 422.507 577.899 422.507 579.102C422.507 580.305 421.965 581.443 421.03 582.202L414.483 587.522C413.742 588.123 412.849 588.417 411.963 588.417C410.8 588.417 409.648 587.913 408.857 586.942C407.464 585.23 407.724 582.713 409.437 581.321Z" fill="#C83267"/>
<path fill-rule="evenodd" clip-rule="evenodd" d="M239.624 464.93C205.652 468.236 174.789 480.889 149.107 501.977C127.008 520.046 120.843 534.407 104.663 554.86C137.629 589.033 181.958 617.988 230.298 633.98C262.543 644.58 284.54 648 319.088 648C353.639 648 375.634 644.58 407.881 633.98C456.649 618.396 497.728 592.859 534.759 556.205C509.396 523.495 498.957 502.057 458.091 481.914C440.931 473.365 420.778 467.21 405.346 465.614L398.078 464.959L397.733 464.952L396.939 470.402C393.485 496.392 360.895 515.542 320.241 515.542C279.589 515.542 247.573 496.619 243.426 470.288C242.621 465.045 242.274 464.588 239.626 464.93H239.624Z" fill="#090E16"/>
</g>
<path fill-rule="evenodd" clip-rule="evenodd" d="M292.122 337.749C290.615 338.256 286.915 339.901 283.899 341.484C280.885 343.003 277.458 344.649 276.294 345.092C273.896 345.978 266.837 346.231 264.577 345.535C263.275 345.154 263 345.281 263 346.484C263 348.446 267.455 352.118 272.32 354.271C278.624 357.055 286.846 356.486 297.125 352.498C301.093 351.417 306.831 348.524 311.446 347.054C321.612 343.734 326.805 345.64 335.977 349.27L343.994 352.498C354.273 356.486 362.496 357.055 368.8 354.271C373.733 352.118 378.324 348.257 377.982 346.611C377.845 345.978 377.228 345.598 376.68 345.725C376.131 345.852 373.596 345.915 370.992 345.915C366.881 345.851 365.648 345.535 360.714 343.193C347.352 336.737 349.271 337.243 339.403 337.243C331.524 337.243 329.947 337.496 325.562 338.952L320.559 340.597L315.626 338.952C309.596 336.989 296.782 336.357 292.122 337.749V337.749Z" fill="#2C1B18" fill-opacity="0.301961"/>
<path fill-rule="evenodd" clip-rule="evenodd" d="M275.486 425.533L275.13 425.453C274.154 425.232 278.946 423.654 280.644 423.068C285.636 421.348 292.146 421.7 300.285 424.163C303.426 424.831 307.97 426.618 311.624 427.526C319.673 429.578 323.785 428.4 331.047 426.158L337.395 424.163C345.534 421.7 352.044 421.348 357.036 423.068C358.709 423.638 360.362 424.378 361.621 425.169L362 425.406C347.432 433.415 300.737 437.397 275.486 425.533V425.533Z" fill="#2C1B18" fill-opacity="0.501961"/>
<defs>
<filter id="filter0_d_147_72" x="484.333" y="247.3" width="171.62" height="171.62" filterUnits="userSpaceOnUse" color-interpolation-filters="sRGB">
<feFlood flood-opacity="0" result="BackgroundImageFix"/>
<feColorMatrix in="SourceAlpha" type="matrix" values="0 0 0 0 0 0 0 0 0 0 0 0 0 0 0 0 0 0 127 0" result="hardAlpha"/>
<feOffset dy="4"/>
<feGaussianBlur stdDeviation="25"/>
<feComposite in2="hardAlpha" operator="out"/>
<feColorMatrix type="matrix" values="0 0 0 0 0 0 0 0 0 0 0 0 0 0 0 0 0 0 0.5 0"/>
<feBlend mode="normal" in2="BackgroundImageFix" result="effect1_dropShadow_147_72"/>
<feBlend mode="normal" in="SourceGraphic" in2="effect1_dropShadow_147_72" result="shape"/>
</filter>
<filter id="filter1_d_147_72" x="0" y="155.984" width="171.62" height="171.62" filterUnits="userSpaceOnUse" color-interpolation-filters="sRGB">
<feFlood flood-opacity="0" result="BackgroundImageFix"/>
<feColorMatrix in="SourceAlpha" type="matrix" values="0 0 0 0 0 0 0 0 0 0 0 0 0 0 0 0 0 0 127 0" result="hardAlpha"/>
<feOffset dy="4"/>
<feGaussianBlur stdDeviation="25"/>
<feComposite in2="hardAlpha" operator="out"/>
<feColorMatrix type="matrix" values="0 0 0 0 0 0 0 0 0 0 0 0 0 0 0 0 0 0 0.5 0"/>
<feBlend mode="normal" in2="BackgroundImageFix" result="effect1_dropShadow_147_72"/>
<feBlend mode="normal" in="SourceGraphic" in2="effect1_dropShadow_147_72" result="shape"/>
</filter>
<filter id="filter2_d_147_72" x="0" y="385.169" width="171.62" height="171.62" filterUnits="userSpaceOnUse" color-interpolation-filters="sRGB">
<feFlood flood-opacity="0" result="BackgroundImageFix"/>
<feColorMatrix in="SourceAlpha" type="matrix" values="0 0 0 0 0 0 0 0 0 0 0 0 0 0 0 0 0 0 127 0" result="hardAlpha"/>
<feOffset dy="4"/>
<feGaussianBlur stdDeviation="25"/>
<feComposite in2="hardAlpha" operator="out"/>
<feColorMatrix type="matrix" values="0 0 0 0 0 0 0 0 0 0 0 0 0 0 0 0 0 0 0.5 0"/>
<feBlend mode="normal" in2="BackgroundImageFix" result="effect1_dropShadow_147_72"/>
<feBlend mode="normal" in="SourceGraphic" in2="effect1_dropShadow_147_72" result="shape"/>
</filter>
<filter id="filter3_f_147_72" x="3" y="0" width="610.296" height="610.296" filterUnits="userSpaceOnUse" color-interpolation-filters="sRGB">
<feFlood flood-opacity="0" result="BackgroundImageFix"/>
<feBlend mode="normal" in="SourceGraphic" in2="BackgroundImageFix" result="shape"/>
<feGaussianBlur stdDeviation="25" result="effect1_foregroundBlur_147_72"/>
</filter>
<filter id="filter4_i_147_72" x="104.663" y="75.7198" width="430.095" height="576.28" filterUnits="userSpaceOnUse" color-interpolation-filters="sRGB">
<feFlood flood-opacity="0" result="BackgroundImageFix"/>
<feBlend mode="normal" in="SourceGraphic" in2="BackgroundImageFix" result="shape"/>
<feColorMatrix in="SourceAlpha" type="matrix" values="0 0 0 0 0 0 0 0 0 0 0 0 0 0 0 0 0 0 127 0" result="hardAlpha"/>
<feOffset dy="4"/>
<feGaussianBlur stdDeviation="2"/>
<feComposite in2="hardAlpha" operator="arithmetic" k2="-1" k3="1"/>
<feColorMatrix type="matrix" values="0 0 0 0 0 0 0 0 0 0 0 0 0 0 0 0 0 0 0.25 0"/>
<feBlend mode="normal" in2="shape" result="effect1_innerShadow_147_72"/>
</filter>
<clipPath id="clip0_147_72">
<rect width="35.8102" height="35.8102" fill="white" transform="translate(552.238 311.205)"/>
</clipPath>
<clipPath id="clip1_147_72">
<rect width="35.8102" height="35.8102" fill="white" transform="translate(67.9051 449.074)"/>
</clipPath>
</defs>
</svg>
