<?xml version="1.0" encoding="utf-8"?>
<!-- Generator: Adobe Illustrator 27.5.0, SVG Export Plug-In . SVG Version: 6.00 Build 0)  -->
<svg version="1.1" xmlns="http://www.w3.org/2000/svg" xmlns:xlink="http://www.w3.org/1999/xlink" x="0px" y="0px"
	 viewBox="0 0 600 600" style="enable-background:new 0 0 600 600;" xml:space="preserve">
<g id="background">
	<rect style="fill:#FFFFFF;" width="600" height="600"/>
	<rect style="fill:#FFDF78;" width="600" height="600"/>
</g>
<g id="objects">
	<g>
		<ellipse style="fill:#EAC663;" cx="300" cy="540" rx="177" ry="14.208"/>
		<g>
			<g>
				<path style="fill:#D3D3D3;" d="M431.686,254.519h-44.791v-77.041c0-47.914-38.981-86.895-86.895-86.895
					s-86.895,38.981-86.895,86.895v77.041h-44.791v-77.041c0-72.612,59.074-131.686,131.686-131.686s131.686,59.074,131.686,131.686
					V254.519z"/>
				<path style="fill:#BCBCBC;" d="M431.687,177.479v77.041h-44.792v-32.905c10.808-12.648,37.153-52.315,1.724-107.432
					c-36.681-57.054-100.94-58.932-153.688-51.159C254.13,52.063,276.352,45.792,300,45.792
					C372.61,45.792,431.687,104.868,431.687,177.479z"/>
				<path style="fill:#BCBCBC;" d="M300,90.583c-47.912,0-86.896,38.983-86.896,86.895v77.041h-33.512v-16.077
					C214.27,238.443,168.034,90.583,300,90.583z"/>
				<path style="fill:#FDC10D;" d="M439.456,499.078H160.544c-11.046,0-20-8.954-20-20V258.394c0-11.046,8.954-20,20-20h278.913
					c11.046,0,20,8.954,20,20v220.684C459.456,490.124,450.502,499.078,439.456,499.078z"/>
				<path style="fill:#E59C0C;" d="M459.458,257.66v222.156c0,10.634-8.631,19.265-19.265,19.265H159.807
					c-10.634,0-19.265-8.631-19.265-19.265v-30.314c4.874,9.132,15.797,23.012,37.124,23.012h160.681
					c35.747,0,64.721-28.975,64.721-64.721V333.18c0-47.18-36.739-88.215-82.57-94.785h119.694
					C450.827,238.395,459.458,247.016,459.458,257.66z"/>
				<path style="fill:#B2841D;" d="M332.205,409.818c1.433,9.003-5.518,17.146-14.629,17.146h-35.152
					c-9.111,0-16.062-8.143-14.629-17.146l4.999-31.372c-7.525-7.184-12.21-17.307-12.21-28.523
					c0-21.768,17.648-39.416,39.416-39.416s39.416,17.648,39.416,39.416c0,11.216-4.685,21.339-12.21,28.523L332.205,409.818z"/>
				<rect x="156.475" y="261.562" style="fill:#FFDF78;" width="29.861" height="139.672"/>
				<rect x="156.475" y="415.683" style="fill:#FFDF78;" width="29.861" height="23.118"/>
				<path style="fill:#845F14;" d="M275.109,356.943c0,11.212,4.681,21.336,12.214,28.522l-4.999,31.373
					c-0.588,3.689,0.231,7.234,2.032,10.124h-1.936c-9.103,0-16.057-8.139-14.622-17.146l4.999-31.373
					c-7.533-7.186-12.214-17.3-12.214-28.522c0-21.77,17.647-39.417,39.417-39.417c9.055,0,17.396,3.053,24.053,8.188
					c-3.053-0.761-6.242-1.166-9.527-1.166C292.756,317.527,275.109,335.174,275.109,356.943z"/>
				<path style="fill:#FFFFFF;" d="M192.997,165.236c3.837-23.208,15.551-60.027,51.134-81.877l-5.78-11.559
					c0,0-50.335,25.567-59.321,93.436L192.997,165.236z"/>
				<path style="fill:#FFFFFF;" d="M178.062,174.868c-0.26,3.736-0.396,7.588-0.396,11.559h13.486c0,0-0.123-4.415,0.576-11.559
					H178.062z"/>
			</g>
			<g>
				<g>
					<path style="fill:none;stroke:#161721;stroke-width:7;stroke-linecap:round;stroke-linejoin:round;stroke-miterlimit:10;" d="
						M213.104,238.395v-60.916c0-47.912,38.983-86.896,86.896-86.896s86.896,38.983,86.896,86.896v60.916"/>
					<path style="fill:none;stroke:#161721;stroke-width:7;stroke-linecap:round;stroke-linejoin:round;stroke-miterlimit:10;" d="
						M168.313,238.395v-60.916c0-72.61,59.077-131.687,131.687-131.687s131.687,59.077,131.687,131.687v60.916"/>
					<path style="fill:none;stroke:#161721;stroke-width:7;stroke-linecap:round;stroke-linejoin:round;stroke-miterlimit:10;" d="
						M439.456,499.078H160.544c-11.046,0-20-8.954-20-20V258.394c0-11.046,8.954-20,20-20h278.913c11.046,0,20,8.954,20,20v220.684
						C459.456,490.124,450.502,499.078,439.456,499.078z"/>
					<path style="fill:none;stroke:#161721;stroke-width:7;stroke-linecap:round;stroke-linejoin:round;stroke-miterlimit:10;" d="
						M332.205,409.818c1.433,9.003-5.518,17.146-14.629,17.146h-35.152c-9.111,0-16.062-8.143-14.629-17.146l4.999-31.372
						c-7.525-7.184-12.21-17.307-12.21-28.523c0-21.768,17.648-39.416,39.416-39.416s39.416,17.648,39.416,39.416
						c0,11.216-4.685,21.339-12.21,28.523L332.205,409.818z"/>
				</g>
			</g>
		</g>
	</g>
</g>
</svg>
